<?xml version="1.0" encoding="UTF-8"?>
<svg id="Layer_2" xmlns="http://www.w3.org/2000/svg" version="1.1" viewBox="0 0 282.6 387.1">
  <!-- Generator: Adobe Illustrator 30.1.0, SVG Export Plug-In . SVG Version: 2.1.1 Build 136)  -->
  <defs>
    <style>
      .st0 {
        fill: #ed1c24;
        stroke: #ed1c24;
        stroke-miterlimit: 10;
      }
    </style>
  </defs>
  <g id="Layer_1-2">
    <g>
      <path class="st0" d="M120.9,247.9s0,0,0,0c4.6-2.8,11.5-.9,14.5,3.9,1.1,1.9,3.1,3,5.3,3h0c2.2,0,4.2-1.1,5.3-3,1.8-3,5.2-4.9,8.8-5.2,4.9-.3,7.5,2.3,8.8,4.6,2.4,4.1,2.9,11.1-1.3,17.7-5.2,8-15,14.6-21.6,18.4-4.6-2.7-8.7-5.5-12.2-8.4-8.5-7.1-12.4-13.3-12.6-20.2-.1-4.6,1.8-8.9,4.9-10.8Z"/>
      <path d="M173.2,242.4c-3.9-5.3-9.9-8.5-16.7-8.8-5.7-.2-11.3,1.7-15.7,5.2-7.5-5.9-18.2-7-26.3-2.1,0,0-.1,0-.2,0-2.3,1.5-4.3,3.3-5.9,5.5-6.6,9.1-6.5,22.3.4,32.8,5.6,8.7,15.1,16.6,29,24.2,1,.5,2,.8,3,.8s2-.2,3-.8c9.3-5,22-13.3,29.1-24.3,5.7-8.7,8-22.3.4-32.8h0ZM120.9,247.5s0,0,0,0c4.6-2.8,11.5-.9,14.5,3.9,1.1,1.9,3.1,3,5.3,3h0c2.2,0,4.2-1.1,5.3-3,1.8-3,5.2-4.9,8.8-5.2,4.9-.3,7.5,2.3,8.8,4.6,2.4,4.1,2.9,11.1-1.3,17.7-5.2,8-15,14.6-21.6,18.4-4.6-2.7-8.7-5.5-12.2-8.4-8.5-7.1-12.4-13.3-12.6-20.2-.1-4.6,1.8-8.9,4.9-10.8Z"/>
    </g>
  </g>
</svg>