<?xml version="1.0" encoding="UTF-8"?>
<svg id="Layer_2" data-name="Layer 2" xmlns="http://www.w3.org/2000/svg" viewBox="0 0 282.6 387.08">
  <g id="Layer_1-2" data-name="Layer 1">
    <g>
      <path d="M278.08,273.08c.31-25.35-14.91-47.87-38.78-57.04.29-10.55-7.89-17.87-18.32-17.86l-46.64.07v-4.31s47.77,0,47.77,0c9,0,16.98-6.79,17.05-15.97l.14-18.57,7.33-.17c5.36-.12,10.14-4.44,10.14-10.02v-42.09c.01-5.36-4.38-9.92-9.6-10.07l-7.85-.22-.1-20.13c-.04-8.6-7.15-16.39-16.1-16.41l-61.58-.12-4.99-29.28c6.13-8.23,5.09-19.29-2.36-26.03-7.21-6.53-18.38-6.48-25.63.02-7.25,6.5-8.51,17.6-2.42,25.9l-4.87,29.37-62.05.17c-9.04.03-16.04,7.76-16.1,16.37l-.13,20.15c-2.11.06-4.2.12-6.18.07-6.74-.17-11.36,4.69-11.35,11.3v39.91c0,5.84,4.1,10.73,10.06,10.92l7.5.25.04,17.73c.02,8.36,6.7,16.68,15.62,16.72l49.33.22v4.24s-49.25.25-49.25.25c-9.3.05-15.97,8.7-15.76,17.55-23.85,9.25-38.96,31.75-38.74,57.09-4.67,5.88-5.66,13.36-2.21,20.08,2.91,5.67,9.03,9.8,16.07,9.83,3.62.01,6.26-2.62,6.38-6.06.12-3.18-2.35-6.26-5.98-6.4-3.41-.13-6.01-2.6-6-5.87.01-3.23,2.85-5.77,5.9-5.71,3.24.06,5.5,2.64,5.64,5.97.15,3.54,2.92,5.96,6.07,6.03,3.25.08,5.87-2.01,6.42-5.42.63-3.84-1.67-7.57-2.6-10.84,1-6.54,4.48-12.65,9.05-17.83l.06,58.45c0,8.82,6.52,16.91,15.52,17l17.57.19c-.08,9.22.38,18.41-.16,27.51-4.46,5.59-8.77,11.48-8.89,19.22-.06,3.71,1.65,7.77,6.16,7.77l42.69.03c4.2,0,6.53-3.49,6.47-7.18-.13-7.76-3.61-14.05-8.85-19.52l-.15-27.9h57.15s-.12,27.97-.12,27.97c-5.74,5.65-9.39,12.77-8.75,21.01.24,3.08,2.88,5.64,6.2,5.64l42.71-.03c4.51,0,6.36-4.05,6.27-7.78-.2-7.75-4.48-13.74-8.95-19.17l-.22-27.58,17.15-.26c6.98-.11,14.21-6.82,14.25-14.23l.35-61.31c4.77,5.23,8.25,11.82,9.15,18.43-1.35,3.41-3.14,7.09-2.51,10.83.6,3.57,3.82,5.53,7.12,5.12,3.17-.39,5.2-3.15,5.35-6.5.15-3.34,2.94-5.55,5.86-5.51,3.12.05,5.54,2.56,5.66,5.66.11,2.89-2.16,5.78-5.43,6.01-3.85.27-6.5,2.45-6.55,6.25-.05,3.52,2.74,6.19,6.56,6.17,7.17-.04,13.22-4.41,16.04-10.18,3.33-6.82,2.13-14.11-2.63-19.91ZM239.69,109.82c1.7-.36,3.29-.31,4.98.25v36.73c-2.07.12-3.43.11-4.98-.13v-36.86ZM38.02,146.54v-36.92s4.86,0,4.86,0l.02,36.87c-1.42.39-3.18.35-4.89.05ZM22.15,267.08l-4.52-.77.73-3.8,4.42,2.74c.21.13.45,1.04.44,1.28,0,.24-.79.6-1.07.55ZM29.07,254.38l-6.56-4.39c1.72-3.06,2.9-5.02,4.96-7.65l4.13,8.06-2.54,3.99ZM40.82,240.9l-3.68-7.59,5.8-3.45.15,8.63c.01.71-1.41,1.86-2.27,2.4ZM139.55,12.77c3.79-1.04,7.17,1.59,7.93,4.73.86,3.54-1.3,6.99-4.61,7.9-3.46.94-6.94-1.1-7.91-4.39-.99-3.38.75-7.19,4.58-8.24ZM137.52,38.07l7.27-.08,3.83,21.82-14.95.05,3.84-21.79ZM60.33,181.53c-2.8,0-4.67-2-4.67-4.71v-99.41c0-2.73,1.39-4.31,4.15-4.86h162.16c2.95,0,4.73,2.07,4.73,4.85v99.87c-.47,2.27-1.54,4.26-4.5,4.26H60.33ZM161.63,198.25l-40.79.02-.07-4.24,40.69-.02.17,4.24ZM81.23,374.46c2.48-5.86,7.79-8.97,13.36-9.02,5.71-.05,11.3,2.81,13.86,8.98l-27.22.04ZM88.87,336.53v-4.02s11.59-.06,11.59-.06c.2,1.06.32,2.43.4,4.06l-11.98.02ZM100.84,353.3l-11.9.04v-4.39s11.82-.03,11.82-.03l.08,4.38ZM175.62,374.45c2.34-5.62,7.62-8.89,13.16-9,5.84-.11,11.39,2.69,14.16,8.96l-27.32.04ZM183.25,336.52v-4.05s11.81,0,11.81,0l.24,4.07-12.06-.02ZM195.23,353.34c-4.33-.22-7.53-.22-11.85.01l.09-4.44h11.69s.06,4.42.06,4.42ZM222.51,319.99H60.3c-2.8,0-4.64-2.01-4.64-4.73v-99.93c0-2.48,2.1-4.33,4.69-4.33h161.62c2.94,0,4.73,2.11,4.73,4.83l.07,82.93.1,16.43c.02,2.51-1.75,4.81-4.37,4.81ZM242.07,240.71c-1.06.16-2.51-1.34-2.49-2.41l.14-8.46c2.31,1.19,3.76,2.07,5.85,3.47l-3.5,7.4ZM253.43,254.36l-2.67-3.75,4.14-8.43c2.07,2.87,3.22,4.77,4.87,7.73l-6.34,4.44ZM258.8,266.57c1.93-2.12,3.15-2.78,5.52-4.07l.75,4.18c-2.33.31-3.76.57-6.26-.12Z"/>
      <path d="M113.6,117.02c.94-8.05-1.8-15.36-7.11-20.58-5.22-5.13-12.38-7.55-19.96-6.76-12.94,1.35-22.23,12.51-21.85,25.16.39,12.72,10.54,23.07,23.1,23.76,12.78.7,24.25-8.14,25.82-21.58ZM99.55,120.48c-2.6,4.18-7.65,6.79-13.05,5.37-5.62-1.47-8.95-6.32-9.04-11.52-.1-5.27,3.24-10.1,8.53-11.77,4.91-1.55,9.99.45,12.84,4.16,3.17,4.11,3.41,9.44.72,13.76Z"/>
      <path d="M188.14,89.7c-14.22.7-24.21,12.56-23.36,26.15.84,13.35,12.34,23.6,25.74,22.9,13.56-.71,24.12-12.15,23.32-25.96-.76-13.12-11.71-23.78-25.7-23.1ZM190.92,126.08c-6.4,1.07-12.62-3.4-13.8-9.69-1.19-6.37,3.01-12.95,9.91-14.12,7-1.19,12.81,3.81,13.81,10,1.06,6.61-3.49,12.73-9.91,13.81Z"/>
      <path d="M182.22,151.67h-85.62c-3.93-.01-6.59,2.64-6.55,6.33.03,3.05,2.34,6.08,6.06,6.08l87.16-.06c3.8,0,5.44-4.49,5.04-6.97-.46-2.88-2.65-5.37-6.09-5.37Z"/>
    </g>
  </g>
</svg>